PathFileType	4	(X/Y/Z)	C:/Users/beibeiliu/ov580/test_trc/User3\sequence.7_training_dense_right.trc
DataRate	CameraRate	NumFrames	NumMarkers	Units	OrigDataRate	OrigDataStartFrame	OrigNumFrames
120	120	20	19	mm	120	148	236
Frame#	Time	ThumbCMC			ThumbMCP			ThumbIP			ThumbTip			IndexMCP			IndexPIP			IndexTip			MiddleMCP			MiddlePIP			MiddleTip			RingMCP			RingPIP			RingTip			PinkyMCP			PinkyPIP			PinkyTip			BackHand1			BackHand2			BackHand3	
		X0	Y0	Z0	X1	Y1	Z1	X2	Y2	Z2	X3	Y3	Z3	X4	Y4	Z4	X5	Y5	Z5	X6	Y6	Z6	X7	Y7	Z7	X8	Y8	Z8	X9	Y9	Z9	X10	Y10	Z10	X11	Y11	Z11	X12	Y12	Z12	X13	Y13	Z13	X14	Y14	Z14	X15	Y15	Z15	X16	Y16	Z16	X17	Y17	Z17	X18	Y18	Z18	
147	1.225	133.626	-18.5126	27.9561	118.182	-34.6081	4.11904	114.353	-52.4265	-20.9778	123.373	-73.1456	-32.1711	171.273	-24.1719	-37.0132	177.297	-25.8907	-62.4232	184.762	-29.9021	-87.7248	169.111	-55.9929	-40.9369	139.617	-75.262	-42.7301	129.628	-65.3108	-4.84328	169.591	-69.5829	-25.1803	145.678	-86.9516	-18.3378	139.451	-71.5806	11.9599	178.099	-80.1001	-10.824	153.006	-92.2367	-5.42888	144.568	-78.6827	20.487	195.599	-37.9876	17.3769	192.924	-34.5074	45.6189	173.912	-14.7073	28.0339	
148	1.23333	134.754	-20.622	28.7945	116.499	-36.6631	1.71357	112.506	-55.3364	-24.1576	120.766	-76.8738	-33.0491	170.167	-24.9345	-40.5309	176.303	-30.7538	-66.2171	181.513	-32.6208	-90.174	165.76	-57.1855	-40.8661	141.798	-78.3312	-43.1137	131.464	-69.1455	-2.90616	167.04	-72.4447	-26.1994	144.658	-90.0827	-16.8078	137.659	-72.0008	11.467	175.394	-85.781	-12.2704	150.179	-95.046	-0.956904	145.939	-75.4975	22.6601	195.267	-42.0636	15.3346	193.304	-34.437	47.2682	175.387	-14.845	26.7489	
149	1.24167	130.231	-20.5598	30.3324	114.896	-37.4706	7.58381	107.488	-58.1061	-20.9565	120.303	-80.2668	-28.1196	166.487	-30.1204	-38.2636	169.274	-35.1468	-62.5723	174.853	-40.4753	-85.84	162.273	-58.044	-38.125	136.043	-79.6183	-39.4659	128.608	-71.7503	0.420958	163.838	-73.6405	-23.8786	141.549	-90.3775	-15.2355	136.232	-72.9621	17.3743	171.241	-87.1769	-10.4193	147.126	-95.5668	0.12372	143.243	-77.1757	24.9346	193.148	-40.8692	15.8242	194.061	-36.105	46.8359	169.877	-13.9222	23.6216	
150	1.25	129.039	-22.2407	33.3934	111.458	-41.7311	7.9502	104.001	-61.1925	-12.9136	112.327	-84.6913	-26.0646	155.523	-32.3352	-38.914	155.576	-37.6178	-63.8872	156.973	-48.0359	-92.0145	154.011	-64.9245	-36.7	127.934	-85.5082	-31.0261	125.204	-73.7558	7.00286	159.602	-77.7598	-19.9678	133.28	-94.2487	-7.13677	129.429	-78.3886	19.2063	167.467	-87.3398	-7.10349	144.61	-98.8819	2.29573	139.391	-81.3891	29.8419	189.323	-42.2866	12.4902	190.889	-35.3608	43.2761	167.714	-16.8502	22.6465	
151	1.25833	125.121	-23.8998	34.0462	103.638	-44.1037	15.8257	99.6681	-66.7043	-6.40291	105.441	-89.5402	-14.7321	142.952	-37.8291	-36.9339	141.64	-48.8933	-60.3754	137.727	-60.8167	-87.6232	145.136	-69.0082	-30.8013	117.735	-89.1694	-25.1185	115.302	-75.814	12.1358	149.19	-87.7386	-16.5084	126.422	-99.1464	0.77339	126.076	-82.9208	26.5773	161.912	-95.8859	-2.17058	135.877	-101.299	11.0779	136.714	-82.0533	35.8079	183.131	-45.8167	13.1883	190.971	-39.1652	46.7252	163.025	-19.3703	23.3678	
152	1.26667	123.81	-27.5405	40.0712	98.4862	-46.2963	24.8185	85.5626	-71.8313	2.21894	93.0018	-94.1289	-5.51852	132.189	-45.9231	-33.0136	123.362	-55.0347	-57.9901	115.083	-68.1836	-79.2736	129.18	-77.4851	-27.7009	104.013	-91.1193	-13.7261	112.599	-79.3874	22.4468	140.003	-88.4865	-9.96632	116.526	-99.7689	4.51149	117.609	-82.5608	33.2389	150.402	-96.5281	2.28608	127.639	-103.926	21.0889	129.298	-85.2536	39.8867	180.115	-52.7316	13.7937	182.72	-39.0351	45.105	156.84	-21.09	25.5449	
153	1.275	119.414	-25.6037	45.7751	91.7489	-47.0893	31.4798	76.6371	-72.4514	13.0837	80.2452	-97.386	7.54226	115.024	-46.3525	-31.4748	104.621	-57.321	-52.6355	93.5805	-70.7437	-70.8582	117.469	-75.2256	-20.1312	92.3764	-93.8174	-1.28961	103.444	-73.7318	31.244	123.486	-91.7742	-5.24553	105.416	-100.207	17.5583	113.389	-81.3683	43.1271	137.856	-100.716	6.62323	117.339	-103.602	26.6747	122.292	-80.6759	44.7751	169.57	-56.8467	12.4113	180.38	-44.1552	38.2554	153.01	-24.9435	25.7404	
154	1.28333	116.068	-26.6598	48.5543	86.0511	-46.7049	38.0176	69.9315	-71.5473	25.6313	72.2462	-97.7324	18.0816	102.439	-50.5459	-27.7965	86.4303	-56.8733	-47.2476	73.64	-69.6737	-63.6147	103.542	-79.702	-13.6744	80.6359	-93.0021	5.0707	96.7933	-71.9954	37.8968	114.819	-92.635	1.79772	97.2347	-102.14	25.3061	103.999	-78.4198	49.0697	127.69	-103.059	13.2559	108.152	-104.946	32.181	114.83	-84.0103	53.0019	158.626	-58.3169	15.4011	175.485	-48.9919	40.039	146.105	-25.0995	23.4018	
155	1.29167	113.621	-25.0392	51.4812	80.7082	-43.5313	43.1677	61.2778	-67.9209	31.4895	66.4709	-92.8132	26.0719	94.2639	-48.1363	-22.9827	75.6765	-56.1119	-41.5068	61.782	-60.4118	-55.7113	90.2031	-76.6422	-10.2279	70.8248	-90.3781	14.292	91.4359	-69.2833	42.116	106.236	-92.6851	7.25583	86.5441	-98.2142	32.3317	100.445	-73.923	53.1052	118.236	-102.3	16.0111	98.3576	-101.313	39.2106	109.569	-78.1806	55.4821	152.232	-63.6212	12.9502	169.031	-51.4991	40.0527	142.129	-28.039	26.1979	
156	1.3	108.963	-21.2117	50.8271	79.6077	-38.6026	47.264	58.8643	-60.9654	36.4945	55.9622	-85.4682	29.5106	87.8875	-41.7595	-20.9881	68.6465	-48.218	-40.1889	53.2934	-53.974	-53.2888	85.2932	-74.4542	-8.16539	60.6724	-80.7748	10.3483	86.6084	-67.1071	42.2661	91.9036	-87.5418	6.70853	76.5329	-89.0679	34.3731	93.827	-68.4776	52.4628	108.384	-100.016	18.1547	88.8477	-95.6827	36.9677	104.775	-74.1494	56.5186	144.566	-62.6527	13.6942	163.187	-50.5462	40.044	140.569	-27.592	23.6158	
157	1.30833	109.824	-15.9529	51.9787	75.7767	-33.8218	41.2419	53.7433	-53.7697	31.3168	53.5015	-79.2956	26.1881	89.2926	-37.8713	-19.18	67.5378	-38.1751	-38.6115	48.1632	-45.1683	-55.5482	79.3988	-66.9204	-11.3622	57.5393	-74.8896	11.1207	80.4867	-62.1864	40.4258	90.426	-85.1334	7.08876	69.682	-84.6925	29.225	89.5293	-67.4119	52.5547	101.251	-97.1229	17.1778	81.5246	-90.6296	35.6062	97.1141	-72.9358	54.0108	145.229	-61.1337	16.967	163.038	-50.6074	39.1427	138.409	-24.6826	23.9131	
158	1.31667	110.204	-15.3479	45.6039	77.5822	-24.4648	41.4789	54.7501	-45.1655	29.3886	47.0625	-70.99	22.3219	90.2955	-33.9028	-24.505	71.2795	-31.222	-39.4267	52.2831	-38.4526	-57.8581	83.1534	-62.4947	-14.191	54.5115	-67.063	2.97842	74.8529	-58.0994	36.5825	87.0223	-78.2187	3.06475	66.1459	-77.093	24.4204	85.6271	-57.0262	48.3098	96.5152	-93.8198	15.3127	76.81	-82.7361	34.1829	95.474	-69.8611	52.9827	140.871	-63.5426	12.605	158.336	-53.6055	38.2976	139.781	-24.8348	22.0903	
159	1.325	115.594	-10.0506	46.328	82.8492	-22.8225	36.8103	58.6877	-35.7535	27.5857	47.918	-62.8955	18.5169	93.2386	-27.642	-27.0639	76.6062	-27.635	-42.0475	55.6087	-27.8945	-61.2576	86.3862	-55.8281	-17.3365	54.878	-60.4177	1.88603	70.8993	-52.0393	31.9682	87.736	-70.9011	0.137804	64.43	-70.2174	22.6594	83.1396	-56.5464	45.94	96.5752	-86.0593	12.3015	74.9701	-79.4556	32.6494	93.3172	-61.1274	46.7309	143.565	-63.8702	15.8313	159.513	-59.3644	38.3781	144.628	-29.8949	19.5611	
160	1.33333	118.767	-11.4373	41.8179	82.924	-13.5858	36.3771	56.8713	-26.5254	24.6753	46.7728	-54.2374	16.0095	98.9135	-22.3048	-28.5307	81.4968	-22.6068	-45.6153	61.0518	-23.5609	-67.0034	85.2914	-49.6414	-21.1267	56.4513	-50.2383	-3.85059	70.7004	-45.8932	28.6308	85.7555	-67.0253	-3.29313	65.4244	-63.032	18.331	85.6873	-49.7903	43.1306	94.4545	-83.5487	10.9922	75.8525	-73.9339	26.1423	92.281	-59.6783	46.2272	146.072	-59.2185	14.5586	161.369	-57.8821	36.4913	147.864	-23.2075	20.8215	
161	1.34167	123.874	-5.81965	44.0014	86.7815	-11.1578	34.1994	60.2207	-24.9632	20.6191	50.5592	-45.668	16.7501	105.836	-19.9756	-29.1008	87.8696	-20.5836	-48.7305	67.8964	-19.2639	-69.4262	89.529	-45.8125	-22.6951	62.1856	-50.8792	-9.57124	71.5975	-38.1055	27.1836	90.8204	-64.5865	-3.3527	68.2648	-60.4182	17.4206	83.916	-47.7497	41.3534	96.1742	-78.9395	10.0991	77.8039	-72.3555	28.2508	94.5699	-56.0324	47.3237	146.782	-55.8766	10.9857	167.136	-53.2346	39.5539	153.794	-21.4729	20.5976	
162	1.35	127.817	-4.02493	40.2169	91.3978	-5.686	32.2886	67.0362	-18.6356	20.5661	54.9214	-40.7745	15.256	111.583	-19.4153	-29.045	95.4729	-18.5078	-50.7285	79.8971	-13.117	-68.9352	93.6659	-44.9815	-23.8406	63.7789	-42.8322	-12.003	77.0228	-33.7178	27.5123	92.5004	-59.3337	-5.56	69.6251	-54.8907	13.4872	89.8054	-40.8325	39.3427	100.197	-79.6637	9.64903	78.9472	-66.2237	25.4132	97.3296	-50.0442	44.5393	148.347	-59.4889	10.6002	168.828	-55.6776	37.4528	153.889	-20.2116	17.519	
163	1.35833	133.026	0.42804	40.7762	96.7382	-4.67586	27.8671	71.2173	-16.9769	16.441	57.6943	-36.7971	11.6502	115.299	-14.5763	-36.1377	102.096	-15.1486	-54.5117	86.5268	-15.2782	-77.5653	99.868	-40.4581	-26.373	68.212	-42.1073	-13.9048	77.918	-29.5509	21.4145	95.5006	-59.0625	-7.023	73.34	-53.8199	14.0819	90.4497	-41.061	38.4194	100.224	-73.9618	7.66398	81.1616	-61.1038	22.4225	98.9088	-44.4644	44.192	153.1	-55.9086	10.5728	170.368	-54.7602	35.0287	160.313	-21.0046	20.4781	
164	1.36667	138.409	-1.03738	37.5079	102.74	-0.679403	26.0267	75.594	-11.9941	11.2127	63.8739	-30.5264	8.97846	124.567	-18.937	-36.5836	109.942	-13.1126	-60.8297	98.6072	-13.2719	-78.7401	102.926	-39.1741	-28.871	73.2976	-34.9751	-16.9086	85.0261	-27.5231	20.9965	98.7933	-55.79	-8.93667	77.7462	-48.6521	11.188	96.9674	-35.3204	36.2907	103.676	-72.3613	5.70312	83.0689	-61.4442	22.8422	102.768	-41.7729	42.8111	156.708	-58.5923	10.4734	174.055	-55.4417	39.7702	165.169	-21.7359	19.7191	
165	1.375	146.332	0.41187	35.7172	109.524	2.42049	21.6705	80.7839	-7.11445	4.77913	69.6927	-29.5326	2.21097	133.291	-16.44	-38.166	120.801	-15.1956	-64.6823	110.743	-13.962	-83.3649	111.918	-43.3635	-29.0022	79.2351	-34.811	-18.755	89.8813	-26.1899	16.896	104.113	-56.4271	-10.2562	82.4855	-43.2961	4.18595	101.384	-33.6755	33.1372	104.887	-65.5593	2.40618	87.5354	-54.6558	16.1017	105.541	-40.0223	40.7507	162.204	-56.3886	12.4541	174.561	-56.7008	38.0844	170.325	-23.1038	17.3493	
166	1.38333	149.482	0.645426	28.5718	116.544	2.51378	15.2524	90.8113	-1.91942	2.5818	77.3175	-23.026	-3.23488	141.691	-22.3963	-41.6217	131.169	-20.2419	-67.9288	122.765	-18.1728	-89.1147	117.422	-39.8576	-35.5079	86.8709	-29.9121	-26.5075	98.0434	-18.9711	11.6096	111.446	-54.2463	-14.2463	87.8297	-43.6346	3.85707	105.152	-30.4099	28.1154	114.612	-65.7995	0.782157	91.8395	-53.1946	14.4597	108.762	-36.8134	31.5726	163.386	-55.9023	9.23983	176.691	-55.398	37.145	177.304	-23.7002	15.1	
